# Blender 4.4.0
# www.blender.org
mtllib playerGloves.mtl
o rightGlove
v 0.103075 -0.022608 -0.228484
v -0.033533 0.060777 -0.237929
v -0.029104 0.068585 -0.270287
v 0.083766 0.019511 -0.165101
v 0.096935 0.029732 -0.229581
v -0.098563 0.037564 -0.250639
v -0.107597 0.001603 -0.234406
v -0.108431 0.010753 -0.153581
v -0.101137 0.041933 -0.148072
v 0.138463 0.029288 -0.114458
v 0.074408 0.030282 -0.115488
v 0.091998 0.010823 -0.250818
v 0.153796 0.009840 -0.238463
v 0.143123 -0.023833 -0.120334
v 0.155448 -0.027922 -0.227840
v 0.094006 -0.034746 -0.237784
v 0.079865 -0.030360 -0.122179
v -0.002605 0.016668 -0.266768
v -0.000466 -0.026338 -0.124026
v 0.004528 0.013322 -0.117930
v -0.007851 -0.033735 -0.242575
v -0.033961 0.036677 -0.275661
v -0.038122 0.031013 -0.243012
v 0.021412 0.057601 -0.220416
v 0.020124 0.017957 -0.224802
v 0.031355 0.024300 -0.266368
v 0.039145 0.065403 -0.259784
v 0.094917 0.025167 -0.129313
v 0.100723 -0.017537 -0.137717
v 0.088522 0.047478 -0.245607
v 0.150586 0.044862 -0.233317
v 0.099833 0.034948 -0.229882
v 0.103078 -0.022607 0.228483
v -0.033530 0.060777 0.237929
v -0.029100 0.068585 0.270287
v 0.083769 0.019512 0.165100
v 0.096938 0.029732 0.229580
v -0.098559 0.037564 0.250641
v -0.107594 0.001604 0.234407
v -0.108429 0.010753 0.153583
v -0.101135 0.041934 0.148074
v 0.138465 0.029288 0.114456
v 0.074409 0.030282 0.115487
v 0.092002 0.010823 0.250816
v 0.153799 0.009840 0.238460
v 0.143125 -0.023833 0.120332
v 0.155452 -0.027922 0.227838
v 0.094010 -0.034746 0.237783
v 0.079867 -0.030360 0.122178
v -0.002601 0.016668 0.266768
v -0.000465 -0.026337 0.124026
v 0.004530 0.013322 0.117930
v -0.007848 -0.033735 0.242576
v -0.033957 0.036677 0.275661
v -0.038119 0.031013 0.243013
v 0.021415 0.057601 0.220415
v 0.020127 0.017957 0.224802
v 0.031359 0.024300 0.266368
v 0.039149 0.065403 0.259784
v 0.094919 0.025167 0.129311
v 0.100725 -0.017537 0.137716
v 0.088525 0.047478 0.245606
v 0.150590 0.044862 0.233315
v 0.099837 0.034948 0.229881
vn -0.9814 0.1665 -0.0952
vn 0.1604 0.1324 -0.9781
vn -0.2972 -0.1039 0.9491
vn 0.2703 0.9622 -0.0342
vn -0.3481 -0.9319 0.1019
vn -0.9724 0.2309 -0.0351
vn 0.1971 0.1582 -0.9675
vn -0.0176 -0.1113 0.9936
vn 0.1838 -0.2610 -0.9477
vn 0.9910 0.0746 0.1108
vn 0.4696 0.0050 -0.8829
vn -0.3127 -0.1024 0.9443
vn -0.1573 -0.9692 -0.1894
vn 0.0019 0.9770 0.2132
vn 0.1459 -0.1701 0.9746
vn 0.0933 -0.9940 0.0570
vn 0.4630 0.0540 -0.8847
vn -0.3271 -0.9417 0.0791
vn 0.2146 0.9766 0.0117
vn -0.2214 -0.3832 -0.8967
vn -0.6822 -0.0585 0.7288
vn 0.1017 -0.9936 0.0498
vn 0.0144 0.9911 0.1320
vn -0.9901 -0.0768 -0.1178
vn -0.1345 0.9903 0.0342
vn 0.2980 0.9066 0.2990
vn -0.2154 0.9455 0.2443
vn 0.1470 -0.4586 -0.8764
vn -0.9814 0.1665 0.0952
vn 0.1604 0.1324 0.9781
vn -0.2972 -0.1039 -0.9491
vn 0.2703 0.9622 0.0342
vn -0.3481 -0.9319 -0.1019
vn -0.9724 0.2309 0.0351
vn 0.1971 0.1582 0.9675
vn -0.0176 -0.1113 -0.9936
vn 0.1839 -0.2610 0.9477
vn 0.9910 0.0746 -0.1108
vn 0.4696 0.0050 0.8828
vn -0.3127 -0.1024 -0.9443
vn -0.1573 -0.9692 0.1894
vn 0.0019 0.9770 -0.2132
vn 0.1459 -0.1701 -0.9746
vn 0.0933 -0.9940 -0.0570
vn 0.4630 0.0540 0.8847
vn -0.3271 -0.9417 -0.0791
vn 0.2146 0.9766 -0.0117
vn -0.2214 -0.3832 0.8968
vn -0.6822 -0.0585 -0.7288
vn 0.1017 -0.9936 -0.0498
vn 0.0144 0.9911 -0.1320
vn -0.9901 -0.0768 0.1178
vn -0.1345 0.9903 -0.0342
vn 0.2980 0.9066 -0.2990
vn -0.2154 0.9455 -0.2443
vn 0.1470 -0.4586 0.8764
vt 0.000000 0.000000
vt -0.088434 -0.103237
vt -0.084717 -0.104714
vt -0.083240 -0.100996
vt -0.086958 -0.099520
vt 0.037979 0.067085
vt 0.038393 0.054091
vt 0.042391 0.054219
vt -0.041977 0.067212
vt -0.042391 0.054219
vt -0.038393 0.054091
vt 0.133437 0.055355
vt 0.129449 0.055674
vt 0.128410 0.042716
vt 0.132398 0.042396
vt 0.063114 0.057906
vt 0.063242 0.064905
vt 0.058243 0.064996
vt 0.058115 0.057997
vt -0.018203 -0.141494
vt -0.013460 -0.139912
vt -0.015359 -0.134220
vt -0.020102 -0.135802
vt 0.018203 -0.141494
vt 0.020102 -0.135802
vt 0.015359 -0.134220
vt 0.013460 -0.139912
vt -0.131122 0.044934
vt -0.125131 0.045262
vt -0.125898 0.059241
vt -0.131889 0.058913
vt -0.131505 0.051923
vt 0.098111 -0.095091
vt 0.095870 -0.100285
vt 0.049056 -0.047546
vt -0.097728 -0.099547
vt -0.095870 -0.100285
vt -0.094393 -0.096568
vt -0.096252 -0.095829
vt -0.053971 0.067594
vt -0.052386 0.054537
vt -0.050387 0.054473
vt -0.049973 0.067467
vt -0.045975 0.067339
vt 0.045975 0.067339
vt 0.041977 0.067212
vt 0.046389 0.054346
vt 0.092152 -0.101761
vt 0.090676 -0.098044
vt 0.086958 -0.099520
vt 0.088434 -0.103237
vt 0.054385 0.054601
vt 0.050180 0.060970
vt -0.062986 0.050907
vt -0.057986 0.050999
vt -0.058115 0.057997
vt -0.063114 0.057906
vt 0.062986 0.050907
vt 0.057986 0.050999
vt 0.131122 0.044934
vt 0.131505 0.051923
vt 0.131889 0.058913
vt 0.125514 0.052252
vt 0.125131 0.045262
s 0
usemtl mat21
f 31/16/7 13/17/7 12/18/7 30/19/7
f 10/20/8 11/21/8 17/22/8 14/23/8
f 13/24/9 15/25/9 16/26/9 12/27/9
f 10/28/10 14/29/10 15/30/10 13/31/10 31/32/10
f 14/54/22 17/55/22 16/56/22 15/57/22
f 10/58/23 31/16/23 30/19/23 11/59/23
f 11/60/24 30/61/24 12/62/24 16/63/24 17/64/24
f 63/16/35 62/19/35 44/18/35 45/17/35
f 42/20/36 46/23/36 49/22/36 43/21/36
f 45/24/37 44/27/37 48/26/37 47/25/37
f 42/28/38 63/32/38 45/31/38 47/30/38 46/29/38
f 46/54/50 47/57/50 48/56/50 49/55/50
f 42/58/51 43/59/51 62/19/51 63/16/51
f 43/60/52 49/64/52 48/63/52 44/62/52 62/61/52
usemtl mat8
f 23/1/1 2/1/1 3/1/1 22/1/1
f 22/1/2 3/1/2 27/1/2 26/1/2
f 20/2/3 9/3/3 8/4/3 19/5/3
f 6/6/4 9/7/4 20/8/4
f 7/9/5 19/10/5 8/11/5
f 6/12/6 7/13/6 8/14/6 9/15/6
f 1/33/11 26/34/11 32/35/11
f 25/1/12 24/1/12 2/1/12 23/1/12
f 26/1/13 25/1/13 23/1/13 22/1/13
f 27/1/14 3/1/14 2/1/14 24/1/14
f 28/36/15 20/37/15 19/38/15 29/39/15
f 1/40/16 29/41/16 19/42/16 21/43/16
f 26/34/17 27/1/17 32/35/17
f 21/44/18 19/10/18 7/9/18
f 18/45/19 6/46/19 20/47/19
f 18/48/20 21/49/20 7/50/20 6/51/20
f 4/52/21 24/1/21 25/53/21
f 20/37/25 28/36/25 5/1/25 18/45/25
f 4/1/26 32/1/26 27/1/26 24/1/26
f 18/45/27 5/1/27 26/34/27
f 18/48/28 26/34/28 1/33/28 21/49/28
f 55/1/29 54/1/29 35/1/29 34/1/29
f 54/1/30 58/1/30 59/1/30 35/1/30
f 52/2/31 51/5/31 40/4/31 41/3/31
f 38/6/32 52/8/32 41/7/32
f 39/9/33 40/11/33 51/10/33
f 38/12/34 41/15/34 40/14/34 39/13/34
f 33/33/39 64/35/39 58/34/39
f 57/1/40 55/1/40 34/1/40 56/1/40
f 58/1/41 54/1/41 55/1/41 57/1/41
f 59/1/42 56/1/42 34/1/42 35/1/42
f 60/36/43 61/39/43 51/38/43 52/37/43
f 33/40/44 53/43/44 51/42/44 61/41/44
f 58/34/45 64/35/45 59/1/45
f 53/44/46 39/9/46 51/10/46
f 50/45/47 52/47/47 38/46/47
f 50/48/48 38/51/48 39/50/48 53/49/48
f 36/52/49 57/53/49 56/1/49
f 52/37/53 50/45/53 37/1/53 60/36/53
f 36/1/54 56/1/54 59/1/54 64/1/54
f 50/45/55 58/34/55 37/1/55
f 50/48/56 53/49/56 33/33/56 58/34/56
